<?xml version="1.0" standalone="no"?>
<!DOCTYPE svg PUBLIC "-//W3C//DTD SVG 20010904//EN"
 "http://www.w3.org/TR/2001/REC-SVG-20010904/DTD/svg10.dtd">
<svg version="1.0" xmlns="http://www.w3.org/2000/svg"
 width="1460.000000pt" height="672.000000pt" viewBox="0 0 1460.000000 672.000000"
 preserveAspectRatio="xMidYMid meet">
<metadata>
Created by potrace 1.16, written by Peter Selinger 2001-2019
</metadata>
<g transform="translate(0.000000,672.000000) scale(0.100000,-0.100000)"
fill="#FC0" stroke="none">
<path d="M295 6709 c-188 -11 -245 -49 -275 -183 -12 -57 -17 -3610 -5 -3661
21 -85 77 -149 150 -171 45 -14 552 -15 4726 -15 4257 1 4681 3 4730 17 109
32 143 83 157 229 4 50 8 875 7 1835 0 1433 -2 1753 -14 1790 -19 65 -82 124
-155 145 -54 16 -366 17 -4635 19 -2517 0 -4625 -2 -4686 -5z"/>
<path d="M10363 6290 c-121 -10 -184 -34 -207 -79 -14 -27 -16 -221 -18 -1855
l-3 -1826 -4880 0 c-3070 -1 -4908 -4 -4954 -10 -141 -19 -197 -68 -220 -194
-14 -76 -14 -501 0 -586 45 -279 206 -478 470 -580 148 -57 260 -74 501 -74
119 -1 219 2 222 5 4 3 13 45 22 93 39 224 110 411 204 536 62 84 196 216 284
282 456 341 1139 272 1542 -154 165 -174 261 -371 303 -622 10 -65 25 -124 31
-130 13 -13 388 -22 486 -11 l62 6 12 72 c49 311 144 510 333 700 175 175 379
286 622 339 93 20 352 16 455 -6 420 -91 753 -385 884 -781 28 -83 56 -224 56
-281 0 -18 5 -36 12 -40 16 -10 4018 -17 4097 -7 l64 8 17 100 c50 296 134
467 320 656 235 238 486 353 796 366 586 25 1101 -380 1209 -949 10 -53 15
-141 15 -254 l0 -175 648 3 c644 3 647 3 703 25 60 25 112 71 128 116 6 16 11
55 11 88 l0 59 -106 0 -106 0 4 207 c3 115 8 216 12 226 7 14 23 17 108 17
l101 0 -7 37 c-3 21 -6 97 -6 169 l0 132 -83 3 c-52 3 -90 9 -100 18 -15 12
-17 50 -17 367 l0 354 26 10 c14 6 38 10 53 10 26 0 29 4 35 48 18 139 -42
751 -124 1257 -64 395 -118 621 -224 940 l-74 220 82 6 c44 3 100 12 124 19
43 13 43 14 37 49 -23 124 -244 570 -369 746 -114 159 -258 237 -486 264 -85
10 -445 32 -875 52 -283 13 -2092 21 -2232 9z m2487 -741 c145 -14 193 -32
257 -92 74 -70 140 -172 228 -352 91 -186 153 -357 211 -579 47 -185 103 -492
107 -595 l2 -64 -35 -9 c-153 -36 -143 -5 -148 -482 l-4 -378 -38 6 c-100 16
-732 241 -1215 433 -326 130 -345 133 -848 133 -205 0 -388 2 -407 5 -79 14
-79 14 -90 57 -7 22 -15 111 -19 197 -8 200 2 1661 13 1683 7 16 67 33 146 41
84 8 1754 5 1840 -4z"/>
<path d="M2261 2055 c-209 -47 -363 -129 -509 -269 -156 -151 -254 -326 -303
-542 -9 -36 -13 -118 -13 -214 1 -135 4 -168 27 -255 78 -290 272 -527 542
-660 173 -85 242 -100 470 -99 178 0 196 2 280 27 428 131 719 502 742 948 25
493 -285 916 -772 1050 -104 28 -365 36 -464 14z m391 -498 c232 -85 358 -263
358 -502 0 -159 -53 -295 -157 -406 -104 -110 -219 -159 -373 -159 -165 0
-303 53 -406 155 -102 101 -154 229 -154 380 1 258 148 470 379 547 83 27 260
20 353 -15z"/>
<path d="M2397 1235 c-83 -29 -131 -104 -132 -206 0 -84 31 -135 102 -170 87
-43 183 -28 245 38 114 119 52 307 -113 342 -60 13 -55 13 -102 -4z"/>
<path d="M5181 2055 c-347 -78 -620 -310 -750 -638 -52 -131 -74 -261 -68
-417 5 -170 29 -267 102 -415 211 -431 696 -661 1171 -555 163 37 328 127 460
252 151 145 249 308 300 503 22 83 27 124 28 240 2 204 -29 334 -118 501 -137
257 -369 438 -661 515 -105 28 -367 36 -464 14z m398 -498 c323 -113 454 -465
292 -785 -65 -128 -207 -243 -337 -272 -65 -15 -177 -15 -250 0 -202 41 -382
213 -429 411 -67 285 114 582 406 664 81 23 225 15 318 -18z"/>
<path d="M5295 1221 c-126 -76 -141 -266 -27 -344 86 -60 189 -57 262 10 106
95 83 271 -42 332 -58 27 -150 29 -193 2z"/>
<path d="M11710 2055 c-361 -81 -651 -346 -770 -703 -74 -224 -58 -522 39
-736 98 -217 300 -419 516 -517 278 -126 629 -123 888 7 256 129 435 337 526
610 41 125 55 231 48 387 -7 161 -30 255 -97 392 -129 265 -363 454 -670 543
-109 31 -375 41 -480 17z m354 -485 c151 -38 278 -133 343 -256 115 -217 72
-505 -102 -680 -114 -116 -268 -166 -434 -143 -285 40 -493 266 -494 539 -1
157 49 275 163 391 147 149 326 200 524 149z"/>
<path d="M11825 1221 c-64 -39 -98 -106 -97 -192 0 -93 51 -159 140 -185 99
-29 192 9 236 98 57 114 20 228 -89 279 -54 25 -150 25 -190 0z"/>
</g>
</svg>
