<?xml version="1.0" standalone="no"?>
<!DOCTYPE svg PUBLIC "-//W3C//DTD SVG 20010904//EN"
 "http://www.w3.org/TR/2001/REC-SVG-20010904/DTD/svg10.dtd">
<svg version="1.0" xmlns="http://www.w3.org/2000/svg"
 width="1399.000000pt" height="337.000000pt" viewBox="0 0 1399.000000 337.000000"
 preserveAspectRatio="xMidYMid meet">
<metadata>
Created by potrace 1.16, written by Peter Selinger 2001-2019
</metadata>
<g transform="translate(0.000000,337.000000) scale(0.100000,-0.100000)"
fill="#FC0" stroke="none">
<path d="M1788 3360 c-103 -16 -793 -152 -798 -157 -9 -8 48 -101 139 -226 48
-67 130 -183 182 -257 150 -216 156 -220 294 -235 33 -4 129 -15 213 -26 84
-11 176 -19 204 -17 l50 3 -40 60 c-70 104 -326 419 -369 452 -58 47 -87 55
-164 47 -40 -4 -74 -2 -85 4 -17 10 -17 11 6 16 61 12 222 27 239 21 27 -8 81
-75 186 -230 166 -245 266 -359 341 -391 16 -7 365 -61 774 -119 410 -59 746
-108 748 -109 1 -2 -15 -15 -37 -29 -108 -71 -432 -141 -825 -177 -259 -24
-306 -30 -306 -39 0 -13 92 -142 219 -305 131 -170 205 -275 199 -281 -2 -3
-60 -11 -128 -20 -242 -30 -302 -13 -87 25 72 13 134 25 136 26 6 6 -62 105
-198 289 -140 189 -222 307 -218 311 1 2 129 15 282 29 324 30 501 55 634 90
52 14 97 27 99 29 8 9 -36 25 -93 35 -90 16 -539 65 -1115 121 -283 28 -612
62 -730 75 -539 61 -802 75 -1070 56 -191 -13 -414 -38 -450 -50 -25 -9 -25
-9 13 -25 45 -20 141 -40 262 -56 261 -33 1388 -211 1417 -223 46 -20 60 -38
193 -247 65 -102 185 -289 266 -416 164 -258 309 -501 309 -520 0 -7 -8 -15
-18 -18 -10 -4 -31 -20 -47 -36 -24 -25 -29 -38 -28 -78 1 -26 8 -63 16 -82
29 -67 55 -81 235 -127 476 -123 1073 -272 1115 -278 26 -4 47 -9 45 -10 -3
-4 -1380 -225 -1401 -225 -6 0 -4 -5 6 -11 9 -5 72 -15 140 -20 198 -17 606 1
1512 66 848 61 846 61 1922 24 491 -17 630 -7 1203 87 151 24 509 81 795 125
842 130 1158 185 1221 215 60 29 129 136 140 218 12 86 -27 158 -119 217 -73
47 -182 83 -342 112 -107 19 -155 22 -435 22 -327 0 -399 -5 -673 -50 -327
-54 -654 -139 -972 -254 -355 -128 -408 -134 -175 -20 406 198 918 348 1420
416 194 26 678 26 835 0 136 -23 254 -52 320 -79 80 -34 178 -103 211 -150 62
-87 67 -139 28 -300 -15 -60 -25 -110 -23 -112 4 -4 660 91 1024 149 1770 281
2928 573 3419 863 96 57 136 110 136 181 0 77 -8 90 -69 120 -189 95 -591 205
-1071 292 -111 20 -192 40 -222 55 -26 13 -52 24 -57 24 -6 0 -49 31 -97 70
-246 197 -470 329 -619 364 -117 27 -230 36 -446 36 -374 0 -674 -33 -1507
-165 -191 -30 -647 -102 -1013 -160 -1082 -170 -2595 -419 -3038 -501 -790
-145 -1584 -348 -2366 -604 -351 -115 -610 -193 -680 -204 l-40 -6 25 21 c123
108 1219 493 1903 669 93 24 166 48 164 54 -7 22 -651 386 -1812 1024 -280
154 -592 328 -693 386 -237 136 -269 148 -402 152 -58 1 -131 -1 -162 -6z
m10127 -840 c50 -19 325 -290 325 -320 0 -4 -39 -15 -86 -24 -82 -17 -87 -17
-122 2 -75 38 -263 278 -248 317 5 14 53 32 88 34 9 1 29 -4 43 -9z m-172
-105 c117 -139 179 -228 165 -236 -24 -13 -299 -59 -355 -59 -30 0 -63 5 -74
10 -31 17 -49 65 -54 147 -3 43 -7 99 -10 125 -4 47 -4 48 33 58 38 11 182 29
217 26 11 0 45 -32 78 -71z m-2183 -360 c103 -53 121 -212 33 -297 -28 -27
-42 -33 -78 -33 -82 0 -135 66 -135 165 1 132 88 212 180 165z m-605 -98 c80
-45 108 -153 64 -245 -52 -106 -178 -107 -232 -2 -38 73 -6 213 57 251 40 24
62 24 111 -4z m-615 -102 c79 -40 107 -101 88 -189 -15 -73 -69 -126 -127
-126 -60 0 -99 24 -122 73 -37 82 -15 197 46 245 36 28 55 28 115 -3z m-617
-76 c65 -34 100 -91 100 -165 0 -139 -127 -218 -222 -138 -39 33 -55 83 -48
155 10 116 93 188 170 148z m-1464 -13 c-9 -9 -256 -69 -602 -146 -718 -161
-821 -194 -891 -289 -41 -55 -49 -120 -36 -297 6 -86 9 -158 6 -161 -11 -11
-47 88 -70 190 -20 88 -26 102 -42 99 -95 -17 -648 -274 -703 -327 -11 -11 -9
-16 14 -31 41 -27 176 -63 320 -85 72 -11 153 -23 180 -28 l50 -8 -66 -2 c-37
0 -113 4 -170 9 -109 11 -440 74 -466 89 -12 6 -2 19 46 60 114 94 339 212
609 320 185 74 228 102 243 156 37 133 276 235 796 340 312 62 804 132 782
111z m200 -83 c9 -19 9 -29 2 -31 -53 -18 -71 -85 -71 -262 0 -196 42 -386
106 -482 l32 -48 -28 -20 c-124 -89 -437 -160 -962 -220 -251 -28 -277 -23
-53 11 392 59 621 112 820 191 l107 42 -6 50 c-4 28 -19 107 -33 176 -23 106
-27 150 -28 290 0 181 12 242 62 300 31 37 37 37 52 3z m648 7 c7 0 28 -14 48
-31 108 -96 57 -309 -75 -309 -82 0 -140 68 -140 163 0 101 71 196 135 182 11
-3 25 -5 32 -5z m1833 -887 c28 -16 59 -68 47 -79 -3 -4 -21 4 -38 17 -53 37
-122 36 -424 -10 -148 -22 -364 -52 -480 -66 -204 -26 -357 -51 -443 -74 l-41
-12 33 -44 c19 -24 39 -66 45 -92 10 -46 9 -49 -16 -70 -37 -30 -111 -47 -154
-35 l-34 9 52 16 c72 22 93 35 93 58 0 53 -60 117 -188 201 -95 61 -291 160
-303 152 -5 -3 -9 -18 -9 -35 0 -16 -3 -29 -7 -29 -8 0 -63 92 -63 105 0 12
131 -3 178 -19 23 -8 90 -42 149 -75 103 -58 112 -61 176 -61 37 0 134 7 215
15 148 16 842 115 982 140 91 17 190 12 230 -12z m-1704 -194 c62 -11 138 -49
147 -73 5 -11 -4 -10 -38 5 -103 46 -257 44 -560 -6 -83 -13 -315 -45 -515
-70 -201 -25 -475 -61 -610 -80 -135 -19 -391 -53 -570 -75 -179 -22 -440 -61
-580 -86 -176 -31 -296 -47 -386 -51 -144 -6 -227 1 -222 20 12 37 75 46 1368
201 712 86 1385 169 1495 186 290 43 368 48 471 29z"/>
</g>
</svg>
