<?xml version="1.0" standalone="no"?>
<!DOCTYPE svg PUBLIC "-//W3C//DTD SVG 20010904//EN"
 "http://www.w3.org/TR/2001/REC-SVG-20010904/DTD/svg10.dtd">
<svg version="1.0" xmlns="http://www.w3.org/2000/svg"
 width="1817.000000pt" height="734.000000pt" viewBox="0 0 1817.000000 734.000000"
 preserveAspectRatio="xMidYMid meet">
<metadata>
Created by potrace 1.16, written by Peter Selinger 2001-2019
</metadata>
<g transform="translate(0.000000,734.000000) scale(0.100000,-0.100000)"
fill="#444444" stroke="none">
<path d="M3588 6742 c-383 -328 -697 -599 -697 -602 -1 -7 2091 -761 2097
-756 2 3 -21 79 -53 168 -32 90 -60 169 -63 176 -3 9 43 12 211 12 l214 0 514
-1415 514 -1415 759 3 759 2 311 862 c171 475 313 863 316 863 3 0 420 -389
925 -865 l920 -865 451 0 c248 0 924 -3 1502 -7 l1050 -6 -73 -216 c-41 -118
-73 -216 -71 -218 5 -6 2096 831 2094 838 -2 6 -1258 1067 -1380 1167 -14 11
-24 -13 -88 -198 l-72 -210 -459 0 -458 0 18 53 c10 28 240 663 510 1409 270
747 491 1362 491 1367 0 8 -1331 27 -1434 19 l-49 -3 -547 -1518 c-301 -835
-551 -1517 -556 -1516 -5 1 -205 176 -444 388 l-435 386 115 7 c678 44 1090
314 1217 798 35 133 43 363 18 511 -74 444 -350 776 -751 902 -157 50 -148 49
-1720 42 l-1472 -8 -348 -963 c-192 -529 -352 -960 -355 -956 -4 4 -160 432
-347 952 -187 520 -344 953 -347 963 -7 16 -62 17 -969 17 l-961 0 -74 215
c-40 118 -76 215 -80 214 -3 0 -320 -269 -703 -597z m6479 -747 c134 -56 192
-208 139 -364 -20 -58 -89 -142 -138 -167 -22 -12 -134 -14 -658 -14 -363 0
-630 4 -630 9 0 8 159 466 181 524 l11 27 530 0 c452 0 534 -2 565 -15z"/>
<path d="M5828 1824 c-109 -26 -179 -75 -254 -176 -89 -121 -113 -252 -121
-649 -10 -527 25 -711 165 -860 102 -110 185 -139 397 -139 212 0 293 27 397
131 104 104 147 236 169 524 13 164 7 524 -11 665 -14 111 -45 222 -78 283
-62 114 -183 203 -311 227 -76 14 -285 11 -353 -6z m276 -268 c114 -47 139
-164 139 -636 0 -464 -23 -580 -126 -633 -48 -25 -141 -26 -191 -2 -79 37
-109 114 -127 318 -15 174 -6 661 15 772 26 135 87 195 199 195 32 0 73 -6 91
-14z"/>
<path d="M7209 1825 c-138 -28 -256 -114 -312 -229 -63 -129 -87 -302 -87
-630 0 -736 121 -966 504 -966 180 0 267 39 333 148 17 29 33 49 36 45 3 -4 8
-41 12 -80 l7 -73 114 0 114 0 0 480 0 480 -270 0 -270 0 0 -145 0 -145 110 0
110 0 0 -72 c0 -154 -39 -285 -97 -326 -16 -11 -50 -26 -76 -33 -128 -32 -224
38 -256 188 -33 156 -39 637 -11 848 20 146 58 216 133 244 40 15 142 14 180
-3 74 -32 123 -120 134 -240 l6 -76 153 0 154 0 0 88 c0 103 -26 219 -67 293
-34 64 -110 134 -177 165 -112 51 -328 69 -477 39z"/>
<path d="M9143 1825 c-153 -42 -259 -140 -302 -280 -42 -137 -35 -291 19 -401
41 -83 121 -157 361 -331 108 -78 212 -160 231 -182 85 -99 75 -265 -20 -328
-68 -45 -189 -42 -241 6 -39 37 -51 83 -58 228 l-6 123 -163 0 -163 0 -7 -46
c-15 -100 16 -296 62 -385 82 -162 216 -229 459 -229 192 0 290 31 389 121 99
90 140 201 140 379 0 257 -72 361 -407 589 -239 163 -297 226 -297 321 0 109
104 181 218 151 92 -25 132 -97 132 -238 l0 -73 160 0 160 0 0 93 c-1 262
-114 424 -337 482 -73 19 -260 19 -330 0z"/>
<path d="M12160 1822 c-86 -23 -148 -60 -204 -124 -114 -130 -136 -236 -143
-692 -9 -560 22 -736 153 -876 89 -95 188 -130 374 -130 146 0 219 15 299 63
141 85 207 227 218 475 l6 132 -167 0 -166 0 0 -90 c0 -169 -33 -259 -107
-292 -56 -25 -131 -21 -171 9 -84 63 -95 132 -96 618 -1 403 6 491 45 573 26
52 78 82 144 82 111 0 167 -75 181 -241 l7 -79 160 0 160 0 -6 103 c-17 277
-129 431 -345 476 -80 17 -266 13 -342 -7z"/>
<path d="M13454 1821 c-81 -23 -140 -59 -196 -119 -82 -87 -118 -188 -118
-329 0 -228 55 -308 370 -533 284 -204 323 -249 324 -370 0 -130 -66 -195
-201 -195 -132 0 -166 50 -171 252 l-4 133 -169 0 -169 0 0 -112 c0 -184 43
-326 125 -417 44 -48 151 -105 231 -121 79 -17 324 -8 391 14 85 27 172 92
220 164 64 95 78 152 78 312 0 161 -15 219 -78 312 -54 78 -132 144 -329 278
-284 194 -347 290 -265 411 74 110 268 76 307 -54 7 -23 15 -77 18 -119 l5
-78 160 0 160 0 -6 108 c-9 171 -51 276 -145 364 -60 56 -111 83 -194 103 -87
20 -266 18 -344 -4z"/>
<path d="M0 1783 c0 -10 87 -405 193 -878 l193 -860 219 -3 220 -2 179 857
c99 472 181 868 184 881 l4 22 -178 -2 -178 -3 -112 -674 c-62 -370 -114 -675
-116 -677 -2 -2 -60 302 -129 674 l-125 677 -177 3 c-164 2 -177 1 -177 -15z"/>
<path d="M1380 920 l0 -880 165 0 165 0 0 387 0 386 108 -6 c159 -9 210 -23
254 -66 20 -21 41 -54 47 -76 5 -22 13 -134 16 -250 7 -214 19 -353 33 -367 5
-5 95 -7 201 -6 l193 3 -22 28 c-45 56 -59 132 -69 370 -10 225 -21 289 -61
367 -21 41 -82 101 -125 123 l-30 16 36 15 c119 50 179 176 179 376 0 210 -71
352 -207 412 -94 42 -160 48 -530 48 l-353 0 0 -880z m621 610 c89 -26 128
-91 129 -213 0 -105 -16 -162 -55 -202 -43 -43 -98 -55 -244 -55 l-121 0 0
246 0 247 128 -6 c70 -3 143 -11 163 -17z"/>
<path d="M2720 920 l0 -880 460 0 460 0 0 150 0 150 -290 0 -290 0 0 730 0
730 -170 0 -170 0 0 -880z"/>
<path d="M4430 920 l0 -880 460 0 460 0 0 150 0 150 -290 0 -290 0 0 730 0
730 -170 0 -170 0 0 -880z"/>
<path d="M8210 920 l0 -880 165 0 165 0 0 880 0 880 -165 0 -165 0 0 -880z"/>
<path d="M9980 1650 l0 -150 185 0 185 0 0 -730 0 -730 165 0 165 0 0 730 0
730 190 0 190 0 0 150 0 150 -540 0 -540 0 0 -150z"/>
<path d="M11220 920 l0 -880 165 0 165 0 0 880 0 880 -165 0 -165 0 0 -880z"/>
<path d="M15000 920 l0 -880 465 0 465 0 0 150 0 150 -295 0 -295 0 0 730 0
730 -170 0 -170 0 0 -880z"/>
<path d="M15820 1650 l0 -150 190 0 190 0 0 -730 0 -730 165 0 165 0 0 730 0
730 185 0 185 0 0 150 0 150 -540 0 -540 0 0 -150z"/>
<path d="M17070 920 l0 -882 363 5 c376 4 411 8 495 51 92 48 177 189 214 357
18 82 21 139 25 438 7 471 -9 586 -102 724 -51 76 -117 128 -204 158 -63 22
-81 23 -428 27 l-363 4 0 -882z m600 600 c60 -16 109 -82 137 -185 34 -128 39
-594 8 -778 -8 -43 -27 -107 -44 -143 -41 -88 -73 -102 -251 -111 l-130 -6 0
623 0 623 123 -7 c67 -4 138 -11 157 -16z"/>
</g>
</svg>
